<svg xmlns="http://www.w3.org/2000/svg" viewBox="0 0 264 73" data-testid="logo" class="Logo__LogoImg-sc-1nge6nv-0 fivOKs"><g fill="none" fill-rule="evenodd"><path d="M92.47 13.607v42.156c0 5.584-2.002 7.83-7.221 7.83-1.076 0-2.353-.133-3.313-.349a1.114 1.114 0 01-.875-1.083v-2.067c0-.657.572-1.171 1.225-1.101 4.636.504 5.026.007 5.026-3.23V13.607l-.537-.064a2.283 2.283 0 01.27-4.548h5.692a2.282 2.282 0 01.27 4.548l-.537.064" fill="#C5242E"></path><path d="M82.164 59.317c-.19 0-.37.069-.515.198a.78.78 0 00-.258.578v2.068a.78.78 0 00.619.761c.933.21 2.174.341 3.239.341 5.023 0 6.891-2.033 6.891-7.5V13.314l.829-.099a1.952 1.952 0 00-.232-3.891h-5.692a1.952 1.952 0 00-.231 3.891l.827.099v42.449c0 1.409-.054 2.535-.746 3.155-.762.685-2.163.672-4.645.403a.838.838 0 00-.086-.004zm3.085 4.606c-1.11 0-2.407-.137-3.385-.357a1.438 1.438 0 01-1.133-1.405v-2.068a1.442 1.442 0 011.59-1.428c2.186.238 3.562.275 4.134-.238.445-.4.527-1.211.527-2.664V13.9l-.246-.029a2.613 2.613 0 01.309-5.206h5.692a2.613 2.613 0 01.309 5.206l-.245.029v41.863c0 5.796-2.189 8.16-7.552 8.16z" fill="#C6242E"></path><path d="M116.02 54.599v-2.246c-2.731 1.639-5.401 2.853-8.314 2.853-6.615 0-7.586-5.098-7.586-11.167V25.832l-.537-.064a2.282 2.282 0 01.27-4.548h3.022a2.282 2.282 0 012.281 2.282v20.537c0 5.219.547 6.797 3.824 6.797 1.76 0 4.127-.789 7.04-2.428V25.832l-.537-.064a2.282 2.282 0 01.27-4.548h3.022a2.282 2.282 0 012.281 2.282v26.484l1.169.14a1.564 1.564 0 011.381 1.554v1.353c0 .865-.701 1.566-1.565 1.566h-6.021" fill="#C5242E"></path><path d="M99.85 21.55a1.954 1.954 0 00-1.953 1.952c0 .988.74 1.822 1.722 1.939l.828.098v18.5c0 6.505 1.233 10.837 7.256 10.837 3.056 0 5.832-1.418 8.144-2.806l.5-.299v2.498h5.691c.681 0 1.235-.555 1.235-1.236V51.68c0-.626-.469-1.153-1.09-1.227l-1.459-.174V23.502a1.954 1.954 0 00-1.953-1.952h-3.02a1.954 1.954 0 00-1.953 1.952c0 .988.74 1.822 1.721 1.939l.828.098v23.063l-.169.094c-2.913 1.639-5.335 2.47-7.201 2.47-3.76 0-4.153-2.172-4.153-7.127V23.502a1.954 1.954 0 00-1.953-1.952H99.85zm7.853 33.986c-6.957 0-7.916-5.526-7.916-11.497V26.125l-.246-.029a2.613 2.613 0 01.309-5.206h3.021a2.615 2.615 0 012.612 2.612v20.537c0 5.318.621 6.467 3.494 6.467 1.715 0 3.973-.771 6.71-2.291v-22.09l-.246-.029a2.614 2.614 0 01-2.303-2.594 2.616 2.616 0 012.613-2.612h3.02a2.616 2.616 0 012.613 2.612v26.191l.878.105c.953.113 1.67.922 1.67 1.882v1.353a1.896 1.896 0 01-1.894 1.895h-6.351v-1.996c-2.287 1.332-4.988 2.604-7.984 2.604z" fill="#C6242E"></path><path d="M134.95 55.206c-2.479 0-4.986-.408-6.618-.799a2.058 2.058 0 01-1.575-2.005v-3.509a2.063 2.063 0 014.099-.324l.331 2.085c1.214.06 2.306.121 3.459.121 4.309 0 5.341-1.517 5.341-4.369 0-2.853-.789-4.067-5.159-6.858l-1.639-1.032c-4.975-3.156-6.675-6.008-6.675-9.952 0-4.977 2.914-7.951 9.71-7.951 2.472 0 4.854.359 6.474.741a2.086 2.086 0 011.598 2.035v2.838a2.093 2.093 0 01-4.15.395l-.28-1.457c-1.093-.061-2.488-.121-3.217-.121-3.581 0-5.097.788-5.097 3.458 0 2.368.727 3.945 4.369 6.191l1.759 1.092c5.948 3.702 7.344 5.948 7.344 10.56 0 4.855-2.366 8.861-10.074 8.861" fill="#C5242E"></path><path d="M128.82 47.16c-.955 0-1.732.778-1.732 1.733v3.509c0 .805.544 1.497 1.322 1.684.771.185 3.523.79 6.541.79 6.466 0 9.744-2.87 9.744-8.531 0-4.612-1.477-6.726-7.187-10.28l-1.76-1.092c-3.825-2.359-4.526-4.03-4.526-6.47 0-3.156 2.078-3.789 5.428-3.789.769 0 2.223.065 3.235.122l.257.014.33 1.71a1.765 1.765 0 003.496-.333v-2.838a1.75 1.75 0 00-1.345-1.714 29.123 29.123 0 00-6.398-.732c-6.224 0-9.379 2.564-9.379 7.621 0 3.985 1.828 6.697 6.521 9.673l1.638 1.032c4.37 2.791 5.313 4.058 5.313 7.137 0 2.821-.965 4.699-5.671 4.699-1.059 0-2.079-.051-3.158-.106l-.585-.029-.373-2.349a1.724 1.724 0 00-1.711-1.461zm6.131 8.376c-3.091 0-5.905-.619-6.694-.808a2.383 2.383 0 01-1.829-2.326v-3.509a2.395 2.395 0 012.392-2.392 2.38 2.38 0 012.362 2.017l.29 1.82.05.002c1.071.054 2.081.105 3.125.105 4.212 0 5.011-1.419 5.011-4.039 0-2.661-.623-3.78-5.006-6.58l-1.638-1.031c-4.914-3.116-6.829-5.985-6.829-10.231 0-5.495 3.378-8.281 10.04-8.281 3.042 0 5.593.525 6.549.75a2.405 2.405 0 011.853 2.356v2.838a2.427 2.427 0 01-2.424 2.424 2.427 2.427 0 01-2.38-1.966l-.231-1.205c-.98-.052-2.249-.106-2.942-.106-3.564 0-4.768.789-4.768 3.129 0 2.244.631 3.7 4.213 5.909l1.76 1.093c5.888 3.665 7.5 5.995 7.5 10.84 0 4.192-1.805 9.191-10.404 9.191z" fill="#C6242E"></path><path d="M171.76 28.26c0-9.043-1.578-11.591-7.769-11.591h-2.913v30.769h2.913c6.191 0 7.769-2.853 7.769-11.896V28.26zm-8.194 26.763c-3.681 0-7.719-.119-11.57-.325a2.847 2.847 0 01-2.691-2.847v-1.352a2.852 2.852 0 012.427-2.819V16.425l-.068-.011a2.851 2.851 0 01-2.359-2.808v-1.405a2.851 2.851 0 012.71-2.85c3.814-.19 7.782-.269 11.551-.269 13.412 0 17.6 6.615 17.6 19.178v7.282c0 12.745-4.067 19.481-17.6 19.481zM202.82 34.571c0-6.069-1.274-7.889-4.369-7.889-3.034 0-4.309 1.76-4.309 7.889v5.705c0 6.13 1.275 7.89 4.309 7.89 3.095 0 4.369-1.76 4.369-7.89v-5.705zm-4.369 20.695c-8.315 0-13.17-4.066-13.17-14.99v-5.705c0-10.924 4.855-14.99 13.17-14.99 8.375 0 13.291 4.066 13.291 14.99v5.705c0 10.924-4.916 14.99-13.291 14.99zM228.31 55.266c-9.102 0-12.502-5.098-12.502-14.929v-5.826c0-9.953 3.4-14.93 12.502-14.93 2.579 0 4.929.3 6.693.657a3.146 3.146 0 012.533 3.079v2.838a3.137 3.137 0 01-3.137 3.137h-.034a3.136 3.136 0 01-3.081-2.549c-.484 0-1.152-.061-1.577-.061-3.581 0-4.977 1.275-4.977 7.829v5.826c0 6.554 1.396 7.829 5.098 7.829 1.209 0 2.766-.08 4.635-.223a2.857 2.857 0 013.073 2.844v.95a2.851 2.851 0 01-2.241 2.789 33.17 33.17 0 01-6.985.74M251.19 55.266c-2.44 0-5.185-.331-7.278-.714a3.255 3.255 0 01-2.675-3.204v-2.293a3.255 3.255 0 016.453-.612l.04.209c.91.06 1.761.06 3.339.06 2.67 0 3.58-1.032 3.58-3.217 0-2.002-.97-2.731-4.552-4.976l-1.638-1.032c-5.158-3.216-7.465-6.19-7.465-10.863 0-6.554 4.249-9.043 11.592-9.043 2.696 0 5.53.303 7.687.723a3.195 3.195 0 012.57 3.142v1.973a3.206 3.206 0 01-3.206 3.205h-.179a3.206 3.206 0 01-3.11-2.428c-.849-.061-1.942-.061-3.156-.061-2.123 0-3.337.547-3.337 2.489 0 1.82.667 2.427 3.884 4.491l1.578 1.032c6.008 3.884 8.253 6.251 8.253 11.227 0 6.312-4.005 9.892-12.38 9.892M62.785 2.47a2.064 2.064 0 00-1.978-1.468H21.45a2.067 2.067 0 00-2.048 1.781 2.064 2.064 0 00-.213 1.294c.497 3.085.905 6.073 1.244 8.961h4.166a216.908 216.908 0 00-1.059-7.903h35.685c1.417 5.574 5.941 26.297 1.911 50.282H43.274a150.34 150.34 0 01-.385 4.133h19.982c.997 0 1.851-.712 2.032-1.693 5.469-29.738-1.806-54.354-2.118-55.387" fill="#4D4E4C"></path><path d="M62.785 2.47a2.064 2.064 0 00-1.978-1.468H21.45a2.067 2.067 0 00-2.048 1.781 2.064 2.064 0 00-.213 1.294c.497 3.085.905 6.073 1.244 8.961h4.166a216.908 216.908 0 00-1.059-7.903h35.685c1.417 5.574 5.941 26.297 1.911 50.282H43.274a150.34 150.34 0 01-.385 4.133h19.982c.997 0 1.851-.712 2.032-1.693 5.469-29.738-1.806-54.354-2.118-55.387z" stroke="#4D4E4C"></path><path d="M41.582 67.453H5.466c.966-6.507 3.082-25.27.091-50.282h19.277c-.131-1.353-.278-2.73-.442-4.133H3.524a2.067 2.067 0 00-2.047 1.78 2.054 2.054 0 00-.223 1.227c3.915 30.77-.21 52.865-.252 53.085-.116.605.044 1.23.435 1.706.394.475.978.75 1.594.75h40.284c.997 0 1.852-.712 2.033-1.693.65-3.532 1.137-6.327 1.499-9.683h-4.166c-.284 2.583-.642 4.561-1.099 7.243" fill="#C5242E"></path><path d="M41.582 67.453H5.466c.966-6.507 3.082-25.27.091-50.282h19.277c-.131-1.353-.278-2.73-.442-4.133H3.524a2.067 2.067 0 00-2.047 1.78 2.054 2.054 0 00-.223 1.227c3.915 30.77-.21 52.865-.252 53.085-.116.605.044 1.23.435 1.706.394.475.978.75 1.594.75h40.284c.997 0 1.852-.712 2.033-1.693.65-3.532 1.137-6.327 1.499-9.683h-4.166c-.284 2.583-.642 4.561-1.099 7.243z" stroke="#C6242E"></path><path d="M24.949 55.417c.615-4.865 1.705-16.715.518-33.162h-4.163c1.525 21.078-.748 34.705-.777 34.876-.103.6.063 1.216.455 1.683a2.07 2.07 0 001.581.736h20.118c.153-1.396.284-2.774.392-4.133H24.949" fill="#4D4E4C"></path><path d="M24.949 55.417c.615-4.865 1.705-16.715.518-33.162h-4.163c1.525 21.078-.748 34.705-.777 34.876-.103.6.063 1.216.455 1.683a2.07 2.07 0 001.581.736h20.118c.153-1.396.284-2.774.392-4.133H24.949z" stroke="#4D4E4C"></path><path d="M43.368 50.121h4.158c.986-20.368-2.444-34.695-2.634-35.492a2.064 2.064 0 00-2.01-1.591H24.599c.162 1.403.309 2.782.439 4.133H41.2c.844 4.356 2.951 16.69 2.168 32.95" fill="#C5242E"></path><path d="M43.368 50.121h4.158c.986-20.368-2.444-34.695-2.634-35.492a2.064 2.064 0 00-2.01-1.591H24.599c.162 1.403.309 2.782.439 4.133H41.2c.844 4.356 2.951 16.69 2.168 32.95z" stroke="#C6242E"></path></g></svg>